<svg width="960" height="720" viewBox="0 0 960 720" xmlns="http://www.w3.org/2000/svg">
  <defs>
    <linearGradient id="aboutBg" x1="0" y1="0" x2="1" y2="1">
      <stop offset="0%" stop-color="#FAFAFC"/>
      <stop offset="100%" stop-color="#F1F1F8"/>
    </linearGradient>
    <radialGradient id="aboutGlow" cx="0.8" cy="0.15" r="0.6">
      <stop offset="0%" stop-color="#6366F1" stop-opacity="0.18"/>
      <stop offset="100%" stop-color="#6366F1" stop-opacity="0"/>
    </radialGradient>
  </defs>

  <rect width="960" height="720" fill="url(#aboutBg)"/>
  <rect width="960" height="720" fill="url(#aboutGlow)"/>
  <circle cx="150" cy="600" r="220" fill="none" stroke="#E5E7EB" stroke-width="1.5"/>

  <!-- Abstract seating / records grid -->
  <g>
    <rect x="204" y="180" width="72" height="72" rx="16" fill="#EDEDF2"/>
    <rect x="300" y="180" width="72" height="72" rx="16" fill="#E5E7EB"/>
    <rect x="396" y="180" width="72" height="72" rx="16" fill="#111111"/>
    <rect x="492" y="180" width="72" height="72" rx="16" fill="#EDEDF2"/>
    <rect x="588" y="180" width="72" height="72" rx="16" fill="#6366F1"/>
    <rect x="684" y="180" width="72" height="72" rx="16" fill="#EDEDF2"/>

    <rect x="204" y="276" width="72" height="72" rx="16" fill="#E5E7EB"/>
    <rect x="300" y="276" width="72" height="72" rx="16" fill="#6366F1" fill-opacity="0.7"/>
    <rect x="396" y="276" width="72" height="72" rx="16" fill="#EDEDF2"/>
    <rect x="492" y="276" width="72" height="72" rx="16" fill="#EDEDF2"/>
    <rect x="588" y="276" width="72" height="72" rx="16" fill="#E5E7EB"/>
    <rect x="684" y="276" width="72" height="72" rx="16" fill="#EDEDF2"/>

    <rect x="204" y="372" width="72" height="72" rx="16" fill="#EDEDF2"/>
    <rect x="300" y="372" width="72" height="72" rx="16" fill="#EDEDF2"/>
    <rect x="396" y="372" width="72" height="72" rx="16" fill="#E5E7EB"/>
    <rect x="492" y="372" width="72" height="72" rx="16" fill="#111111"/>
    <rect x="588" y="372" width="72" height="72" rx="16" fill="#EDEDF2"/>
    <rect x="684" y="372" width="72" height="72" rx="16" fill="#E5E7EB"/>

    <rect x="204" y="468" width="72" height="72" rx="16" fill="#6366F1" fill-opacity="0.55"/>
    <rect x="300" y="468" width="72" height="72" rx="16" fill="#EDEDF2"/>
    <rect x="396" y="468" width="72" height="72" rx="16" fill="#EDEDF2"/>
    <rect x="492" y="468" width="72" height="72" rx="16" fill="#E5E7EB"/>
    <rect x="588" y="468" width="72" height="72" rx="16" fill="#EDEDF2"/>
    <rect x="684" y="468" width="72" height="72" rx="16" fill="#6366F1"/>
  </g>

  <!-- Highlighted "verified" tile -->
  <rect x="588" y="180" width="72" height="72" rx="16" fill="none" stroke="#4F46E5" stroke-width="2"/>
  <path d="M610 216L622 228L646 202" stroke="#FFFFFF" stroke-width="5" stroke-linecap="round" stroke-linejoin="round" fill="none"/>

  <rect x="684" y="468" width="72" height="72" rx="16" fill="none" stroke="#4F46E5" stroke-width="2"/>
  <path d="M706 504L718 516L742 490" stroke="#FFFFFF" stroke-width="5" stroke-linecap="round" stroke-linejoin="round" fill="none"/>
</svg>
