<svg width="640" height="480" viewBox="0 0 640 480" xmlns="http://www.w3.org/2000/svg" font-family="Inter, Arial, Helvetica, sans-serif">
  <rect x="1" y="1" width="638" height="478" rx="24" fill="#FFFFFF" stroke="#E5E7EB" stroke-width="1.5"/>

  <!-- Header -->
  <rect x="20" y="16" width="24" height="24" rx="7" fill="#6366F1"/>
  <path d="M28 32C28 27.5817 31.5817 24 36 24C37.5 24 38.9 24.5 40 25.4" stroke="white" stroke-width="2" stroke-linecap="round" fill="none"/>
  <text x="54" y="33" font-size="15" font-weight="800" fill="#111111">OpenSchool</text>
  <circle cx="566" cy="28" r="14" fill="none" stroke="#E5E7EB" stroke-width="1.5"/>
  <circle cx="600" cy="28" r="14" fill="#E5E7EB"/>
  <line x1="0" y1="56" x2="640" y2="56" stroke="#E5E7EB" stroke-width="1.5"/>

  <!-- Sidebar -->
  <line x1="160" y1="56" x2="160" y2="480" stroke="#E5E7EB" stroke-width="1.5"/>
  <rect x="16" y="76" width="128" height="36" rx="10" fill="#EEF0FF"/>
  <rect x="16" y="76" width="3" height="36" rx="1.5" fill="#6366F1"/>
  <text x="34" y="99" font-size="12" font-weight="700" fill="#4F46E5">Dashboard</text>

  <circle cx="20" cy="140" r="3" fill="#D1D5DB"/>
  <text x="30" y="145" font-size="12" font-weight="500" fill="#666666">Academic Years</text>
  <circle cx="20" cy="186" r="3" fill="#D1D5DB"/>
  <text x="30" y="191" font-size="12" font-weight="500" fill="#666666">Classes</text>
  <circle cx="20" cy="232" r="3" fill="#D1D5DB"/>
  <text x="30" y="237" font-size="12" font-weight="500" fill="#666666">Students</text>
  <circle cx="20" cy="278" r="3" fill="#D1D5DB"/>
  <text x="30" y="283" font-size="12" font-weight="500" fill="#666666">Attendance</text>
  <circle cx="20" cy="324" r="3" fill="#D1D5DB"/>
  <text x="30" y="329" font-size="12" font-weight="500" fill="#666666">Guardians</text>

  <!-- Stat tiles -->
  <g>
    <rect x="192" y="80" width="130" height="76" rx="14" fill="#FFFFFF" stroke="#E5E7EB"/>
    <text x="208" y="106" font-size="10" fill="#666666">Students</text>
    <text x="208" y="130" font-size="20" font-weight="800" fill="#111111">1,248</text>
    <text x="208" y="146" font-size="9" font-weight="700" fill="#16A34A">+4.2%</text>
  </g>
  <g>
    <rect x="338" y="80" width="130" height="76" rx="14" fill="#FFFFFF" stroke="#E5E7EB"/>
    <text x="354" y="106" font-size="10" fill="#666666">Classes</text>
    <text x="354" y="130" font-size="20" font-weight="800" fill="#111111">42</text>
    <text x="354" y="146" font-size="9" font-weight="700" fill="#16A34A">+2</text>
  </g>
  <g>
    <rect x="484" y="80" width="130" height="76" rx="14" fill="#FFFFFF" stroke="#E5E7EB"/>
    <text x="500" y="106" font-size="10" fill="#666666">Attendance</text>
    <text x="500" y="130" font-size="20" font-weight="800" fill="#111111">96%</text>
    <text x="500" y="146" font-size="9" font-weight="700" fill="#16A34A">+1.1%</text>
  </g>

  <!-- Chart card -->
  <rect x="192" y="172" width="422" height="168" rx="16" fill="#FFFFFF" stroke="#E5E7EB"/>
  <text x="212" y="198" font-size="12" font-weight="700" fill="#111111">Attendance — This Week</text>

  <rect x="212" y="256" width="28" height="60" rx="6" fill="#6366F1" fill-opacity="0.55"/>
  <rect x="264" y="236" width="28" height="80" rx="6" fill="#6366F1" fill-opacity="0.55"/>
  <rect x="316" y="271" width="28" height="45" rx="6" fill="#6366F1" fill-opacity="0.55"/>
  <rect x="368" y="221" width="28" height="95" rx="6" fill="#6366F1" fill-opacity="0.65"/>
  <rect x="420" y="246" width="28" height="70" rx="6" fill="#6366F1" fill-opacity="0.55"/>
  <rect x="472" y="261" width="28" height="55" rx="6" fill="#6366F1" fill-opacity="0.55"/>
  <rect x="524" y="228" width="28" height="88" rx="6" fill="#6366F1"/>
  <line x1="212" y1="316" x2="552" y2="316" stroke="#E5E7EB" stroke-width="1.5"/>

  <text x="221" y="330" font-size="9" fill="#9AA0AC">M</text>
  <text x="273" y="330" font-size="9" fill="#9AA0AC">T</text>
  <text x="325" y="330" font-size="9" fill="#9AA0AC">W</text>
  <text x="377" y="330" font-size="9" fill="#9AA0AC">T</text>
  <text x="429" y="330" font-size="9" fill="#9AA0AC">F</text>
  <text x="481" y="330" font-size="9" fill="#9AA0AC">S</text>
  <text x="533" y="330" font-size="9" font-weight="700" fill="#4F46E5">S</text>

  <!-- Table card -->
  <rect x="192" y="356" width="422" height="104" rx="16" fill="#FFFFFF" stroke="#E5E7EB"/>

  <circle cx="214" cy="380" r="9" fill="#E5E7EB"/>
  <rect x="232" y="375" width="70" height="8" rx="4" fill="#D1D5DB"/>
  <rect x="312" y="375" width="40" height="8" rx="4" fill="#EDEDF2"/>
  <rect x="536" y="371" width="58" height="18" rx="9" fill="#ECFDF5"/>
  <text x="546" y="384" font-size="9" font-weight="700" fill="#059669">Present</text>

  <circle cx="214" cy="408" r="9" fill="#E5E7EB"/>
  <rect x="232" y="403" width="70" height="8" rx="4" fill="#D1D5DB"/>
  <rect x="312" y="403" width="40" height="8" rx="4" fill="#EDEDF2"/>
  <rect x="536" y="399" width="58" height="18" rx="9" fill="#ECFDF5"/>
  <text x="546" y="412" font-size="9" font-weight="700" fill="#059669">Present</text>

  <circle cx="214" cy="436" r="9" fill="#E5E7EB"/>
  <rect x="232" y="431" width="70" height="8" rx="4" fill="#D1D5DB"/>
  <rect x="312" y="431" width="40" height="8" rx="4" fill="#EDEDF2"/>
  <rect x="536" y="427" width="58" height="18" rx="9" fill="#FEF3C7"/>
  <text x="549" y="440" font-size="9" font-weight="700" fill="#B45309">Late</text>
</svg>
