<svg width="500" height="130" viewBox="0 0 500 130" xmlns="http://www.w3.org/2000/svg" preserveAspectRatio="none">
  <path d="M 0 130 L 0 53 L 11 74 L 26 39 L 36 35 L 46 42 L 54 49 L 75 52 L 83 46 L 104 43 L 122 65 L 141 63 L 150 60 L 170 83 L 189 76 L 198 73 L 208 73 L 228 68 L 247 60 L 263 61 L 273 52 L 288 50 L 303 57 L 312 47 L 330 42 L 348 46 L 370 27 L 386 35 L 406 50 L 418 44 L 427 41 L 440 44 L 450 49 L 472 59 L 480 50 L 496 48 L 500 53 L 500 130 Z"
        fill="#000000" fill-opacity="0.055"/>
  <path d="M 0 130 L 0 48 L 11 69 L 26 34 L 36 30 L 46 37 L 54 44 L 75 47 L 83 41 L 104 38 L 122 60 L 141 58 L 150 55 L 170 78 L 189 71 L 198 68 L 208 68 L 228 63 L 247 55 L 263 56 L 273 47 L 288 45 L 303 52 L 312 42 L 330 37 L 348 41 L 370 22 L 386 30 L 406 45 L 418 39 L 427 36 L 440 39 L 450 44 L 472 54 L 480 45 L 496 43 L 500 48 L 500 130 Z"
        fill="#FAFAFA"/>
</svg>
