<svg width="2000" height="130" viewBox="0 0 2000 130" xmlns="http://www.w3.org/2000/svg" preserveAspectRatio="none">
  <path d="M 0 130 L 0 53 L 22 59 L 44 64 L 58 60 L 71 78 L 81 76 L 90 66 L 112 64 L 125 66 L 135 40 L 143 42 L 157 48 L 180 25 L 196 36 L 206 38 L 221 35 L 232 48 L 252 23 L 260 41 L 269 54 L 289 55 L 303 50 L 313 42 L 334 39 L 349 35 L 371 36 L 385 36 L 397 40 L 417 39 L 433 53 L 450 44 L 463 54 L 474 32 L 496 45 L 500 53 L 514 54 L 533 56 L 547 63 L 570 54 L 592 34 L 602 41 L 616 42 L 636 38 L 658 36 L 676 49 L 696 46 L 706 51 L 714 47 L 725 40 L 744 27 L 765 28 L 777 46 L 796 49 L 809 57 L 826 50 L 850 42 L 860 72 L 882 59 L 904 50 L 917 46 L 939 57 L 949 62 L 967 51 L 986 46 L 1004 27 L 1000 53 L 1020 51 L 1034 50 L 1043 57 L 1052 53 L 1067 55 L 1091 52 L 1114 81 L 1123 76 L 1145 74 L 1161 74 L 1174 72 L 1183 56 L 1197 48 L 1209 53 L 1223 49 L 1242 46 L 1264 44 L 1283 49 L 1303 55 L 1322 48 L 1341 43 L 1355 38 L 1379 52 L 1390 56 L 1406 58 L 1423 59 L 1435 60 L 1457 40 L 1470 47 L 1492 43 L 1515 23 L 1500 53 L 1509 57 L 1519 64 L 1535 69 L 1548 68 L 1558 64 L 1567 53 L 1587 71 L 1608 73 L 1623 59 L 1637 63 L 1652 63 L 1668 55 L 1676 61 L 1692 62 L 1704 63 L 1714 66 L 1737 70 L 1749 70 L 1762 59 L 1782 37 L 1792 33 L 1810 61 L 1818 59 L 1826 61 L 1836 52 L 1849 44 L 1873 42 L 1883 66 L 1897 64 L 1921 57 L 1944 55 L 1952 51 L 1972 46 L 1996 56 L 2000 53 L 2000 130 Z"
        fill="#000000" fill-opacity="0.055"/>
  <path d="M 0 130 L 0 48 L 22 54 L 44 59 L 58 55 L 71 73 L 81 71 L 90 61 L 112 59 L 125 61 L 135 35 L 143 37 L 157 43 L 180 20 L 196 31 L 206 33 L 221 30 L 232 43 L 252 18 L 260 36 L 269 49 L 289 50 L 303 45 L 313 37 L 334 34 L 349 30 L 371 31 L 385 31 L 397 35 L 417 34 L 433 48 L 450 39 L 463 49 L 474 27 L 496 40 L 500 48 L 514 49 L 533 51 L 547 58 L 570 49 L 592 29 L 602 36 L 616 37 L 636 33 L 658 31 L 676 44 L 696 41 L 706 46 L 714 42 L 725 35 L 744 22 L 765 23 L 777 41 L 796 44 L 809 52 L 826 45 L 850 37 L 860 67 L 882 54 L 904 45 L 917 41 L 939 52 L 949 57 L 967 46 L 986 41 L 1004 22 L 1000 48 L 1020 46 L 1034 45 L 1043 52 L 1052 48 L 1067 50 L 1091 47 L 1114 76 L 1123 71 L 1145 69 L 1161 69 L 1174 67 L 1183 51 L 1197 43 L 1209 48 L 1223 44 L 1242 41 L 1264 39 L 1283 44 L 1303 50 L 1322 43 L 1341 38 L 1355 33 L 1379 47 L 1390 51 L 1406 53 L 1423 54 L 1435 55 L 1457 35 L 1470 42 L 1492 38 L 1515 18 L 1500 48 L 1509 52 L 1519 59 L 1535 64 L 1548 63 L 1558 59 L 1567 48 L 1587 66 L 1608 68 L 1623 54 L 1637 58 L 1652 58 L 1668 50 L 1676 56 L 1692 57 L 1704 58 L 1714 61 L 1737 65 L 1749 65 L 1762 54 L 1782 32 L 1792 28 L 1810 56 L 1818 54 L 1826 56 L 1836 47 L 1849 39 L 1873 37 L 1883 61 L 1897 59 L 1921 52 L 1944 50 L 1952 46 L 1972 41 L 1996 51 L 2000 48 L 2000 130 Z"
        fill="#FAFAFA"/>
</svg>
